<svg width="96" height="80" viewBox="0 0 96 80" fill="none" xmlns="http://www.w3.org/2000/svg">
<path d="M48 0C34.4312 0 22.1506 2.2213 13.4317 5.71429C9.07013 7.45974 5.61039 9.51688 3.33299 11.6779C1.05766 13.8182 0 15.9584 0 18.0779C0 20.1974 1.05766 22.3377 3.33299 24.4779C5.61039 26.639 9.07013 28.6961 13.4317 30.4416C22.1506 33.9325 34.4312 36.1558 48 36.1558C61.5688 36.1558 73.8493 33.9325 82.5766 30.4416C86.9195 28.6961 90.3896 26.639 92.6753 24.4779C94.9403 22.3377 96 20.1974 96 18.0779C96 15.9584 94.9403 13.8182 92.6753 11.6779C90.3896 9.51688 86.9195 7.45974 82.5766 5.71429C73.8493 2.2213 61.5688 0 48 0ZM48.0208 2.81143C58.6805 2.81143 68.3429 4.17662 75.4701 6.46234C79.0442 7.60519 81.9948 8.95584 84.1766 10.6182C86.3792 12.2597 87.9169 14.3584 87.9169 16.8312C87.9169 19.3039 86.3792 21.4026 84.1766 23.0442C81.9948 24.7065 79.0442 26.0571 75.4701 27.2C68.3429 29.4857 58.6805 30.8571 48.0208 30.8571C37.361 30.8571 27.6987 29.4857 20.5714 27.2C16.9974 26.0571 14.0405 24.7065 11.8545 23.0442C9.67065 21.4026 8.12468 19.3039 8.12468 16.8312C8.12468 14.3584 9.67065 12.2597 11.8545 10.6182C14.0405 8.95584 16.9974 7.60519 20.5714 6.46234C27.6987 4.17662 37.361 2.81143 48.0208 2.81143ZM48.0208 6.54545C37.6727 6.54545 28.3221 7.91688 21.6935 10.0156C18.3896 11.0753 15.7714 12.3429 14.1112 13.5896C12.4468 14.8571 11.8649 15.9377 11.8649 16.8312C11.8649 17.7247 12.4468 18.8052 14.1112 20.0727C15.7714 21.3195 18.3896 22.587 21.6935 23.6468C28.3221 25.7455 37.6727 27.1169 48.0208 27.1169C58.3688 27.1169 67.7195 25.7455 74.348 23.6468C77.6519 22.587 80.2701 21.3195 81.9325 20.0727C83.5948 18.8052 84.1766 17.7247 84.1766 16.8312C84.1766 15.9377 83.5948 14.8571 81.9325 13.5896C80.2701 12.3429 77.6519 11.0753 74.348 10.0156C67.7195 7.91688 58.3688 6.54545 48.0208 6.54545ZM0 26.4312V61.2987C0 64.0416 1.22182 66.4104 3.67792 68.6545C6.13195 70.8987 9.82026 72.8935 14.3418 74.4935C23.3766 77.7143 35.6987 79.3766 48 79.3766C60.3013 79.3766 72.6234 77.7143 81.6623 74.4935C86.1714 72.8935 89.8701 70.8987 92.3221 68.6545C94.774 66.4104 96 64.0416 96 61.2987V26.4312C95.7506 26.7013 95.5013 26.9506 95.2312 27.2C92.4675 29.8182 88.6234 32.0623 83.9481 33.9117C74.639 37.6519 61.9636 39.8961 48 39.8961C34.0364 39.8961 21.361 37.6519 12.0416 33.9117C7.37662 32.0623 3.53455 29.8182 0.764675 27.2C0.498701 26.9506 0.245195 26.7013 0 26.4312ZM14.7532 44.6753L28.1351 54.6909C35.0545 51.5117 43.0545 47.6052 56.3325 47.6052C64.6442 47.6052 81.2675 52.987 81.2675 57.1636C81.2675 61.2987 64.6442 66.7013 56.3325 66.7013C43.0545 66.7013 35.0545 62.774 28.1351 59.5948L14.7532 69.6104V44.6753Z" fill="#699C65"/>
</svg>
